<?xml version="1.0" standalone="no"?>
<!DOCTYPE svg PUBLIC "-//W3C//DTD SVG 20010904//EN"
 "http://www.w3.org/TR/2001/REC-SVG-20010904/DTD/svg10.dtd">
<svg version="1.0" xmlns="http://www.w3.org/2000/svg"
 width="700.000000pt" height="700.000000pt" viewBox="0 0 700.000000 700.000000"
 preserveAspectRatio="xMidYMid meet">
<metadata>
Created by potrace 1.14, written by Peter Selinger 2001-2017
</metadata>
<g transform="translate(0.000000,700.000000) scale(0.100000,-0.100000)"
fill="#000000" stroke="none">
<path d="M1262 3780 l3 -2564 123 -1 c68 0 129 3 134 6 7 5 11 708 11 2233
l-1 2227 25 -23 c14 -13 313 -310 664 -662 l639 -638 0 -1736 0 -1736 795 795
c438 436 797 796 800 798 2 2 4 -279 5 -625 0 -345 2 -630 5 -633 8 -8 256 -7
262 1 2 5 4 352 4 772 l1 764 829 828 828 829 -961 962 c-529 529 -964 961
-966 959 -1 -2 -3 -721 -3 -1597 l0 -1593 -663 663 -664 664 -1 741 c0 408 0
755 0 771 l-1 30 -132 0 -133 0 -3 -635 -2 -635 -800 800 -800 800 2 -2565z
m4075 1298 c329 -328 613 -612 630 -630 l33 -33 -635 -635 -634 -634 0 1268
c1 697 2 1266 5 1264 2 -1 273 -272 601 -600z m-1569 -1628 c334 -334 613
-614 619 -622 10 -11 -99 -125 -621 -647 l-634 -634 0 1267 c0 1115 1 1266 14
1255 8 -7 288 -285 622 -619z"/>
<path d="M192 4214 l-92 -95 251 -251 251 -251 -251 -251 -251 -251 97 -98 97
-97 348 347 348 348 -347 347 c-192 192 -350 348 -353 347 -3 0 -47 -43 -98
-95z"/>
<path d="M6704 4292 c-7 -4 -165 -158 -353 -342 l-341 -334 159 -156 c88 -85
245 -239 350 -343 l191 -187 96 97 96 98 -251 246 -250 246 250 244 251 245
-94 97 c-57 59 -97 94 -104 89z"/>
</g>
</svg>
